<svg width="313" height="512" viewBox="0 0 313 512" fill="none" xmlns="http://www.w3.org/2000/svg">
<path d="M312.8 14.3698C312.8 6.46984 306.4 0.169839 298.6 0.169839H227.5C153 -3.53016 89.5 53.6698 85.3 128.17V204.97H14.2C6.3 204.97 0 211.37 0 219.17V292.97C0 300.87 6.4 307.17 14.2 307.17H85.3V497.67C85.3 505.47 91.7 511.87 99.5 511.87H184.8C192.7 511.87 199 505.47 199 497.67V307.27H273.5C280 307.37 285.7 303.07 287.4 296.77L307.9 222.87C309.9 215.27 305.4 207.47 297.9 205.47L294.3 204.97H199V128.17C200.5 113.57 212.8 102.47 227.4 102.57H298.5C306.4 102.57 312.7 96.1698 312.7 88.3698V14.3698H312.8Z" fill="white"/>
</svg>
