<svg width="854" height="854" viewBox="0 0 854 854" fill="none" xmlns="http://www.w3.org/2000/svg">
<path d="M426.667 0C310.784 0 296.277 0.511997 250.752 2.56C205.355 4.65066 174.336 11.8613 147.2 22.4C118.719 33.1027 92.9174 49.8915 71.5947 71.5947C49.8925 92.9183 33.1039 118.72 22.4 147.2C11.8613 174.336 4.65066 205.355 2.56 250.752C0.469332 296.277 0 310.784 0 426.667C0 542.549 0.469331 557.056 2.56 602.581C4.65066 647.979 11.8613 678.997 22.4 706.133C33.1052 734.613 49.8936 760.414 71.5947 781.739C92.9192 803.44 118.721 820.228 147.2 830.933C174.336 841.472 205.355 848.683 250.752 850.773C296.277 852.821 310.784 853.333 426.667 853.333C542.549 853.333 557.056 852.821 602.581 850.773C647.979 848.683 678.997 841.472 706.133 830.933C734.613 820.229 760.415 803.441 781.739 781.739C803.441 760.415 820.229 734.613 830.933 706.133C841.472 678.997 848.683 647.979 850.773 602.581C852.821 557.056 853.333 542.549 853.333 426.667C853.333 310.784 852.821 296.277 850.773 250.752C848.683 205.355 841.472 174.336 830.933 147.2C820.229 118.72 803.441 92.9183 781.739 71.5947C760.416 49.8915 734.614 33.1027 706.133 22.4C678.997 11.8613 647.979 4.65066 602.581 2.56C557.056 0.511997 542.549 0 426.667 0ZM426.667 76.8853C540.587 76.8853 554.069 77.312 599.04 79.36C640.683 81.28 663.253 88.192 678.315 94.0373C698.197 101.803 712.448 111.061 727.381 125.952C742.315 140.885 751.531 155.136 759.296 175.019C765.099 190.08 772.096 212.651 773.973 254.251C776.021 299.264 776.448 312.704 776.448 426.667C776.448 540.587 776.021 554.069 773.973 599.04C772.053 640.683 765.099 663.253 759.296 678.315C752.456 696.848 741.55 713.614 727.381 727.381C712.448 742.315 698.197 751.531 678.315 759.296C663.253 765.099 640.683 772.096 599.083 773.973C554.112 776.021 540.629 776.448 426.667 776.448C312.747 776.448 299.221 776.021 254.293 773.973C212.651 772.053 190.08 765.099 175.019 759.296C156.484 752.458 139.717 741.553 125.952 727.381C111.781 713.616 100.875 696.85 94.0373 678.315C88.192 663.253 81.2373 640.683 79.36 599.083C77.312 554.069 76.8853 540.629 76.8853 426.667C76.8853 312.747 77.312 299.264 79.36 254.293C81.28 212.651 88.192 190.08 94.0373 175.019C101.803 155.136 111.061 140.885 125.952 125.952C140.885 111.019 155.136 101.803 175.019 94.0373C190.08 88.192 212.651 81.2373 254.251 79.36C299.264 77.312 312.704 76.8853 426.667 76.8853ZM426.667 568.875C388.951 568.875 352.78 553.892 326.11 527.223C299.441 500.554 284.459 464.383 284.459 426.667C284.459 388.951 299.441 352.78 326.11 326.11C352.78 299.441 388.951 284.459 426.667 284.459C464.383 284.459 500.554 299.441 527.223 326.11C553.892 352.78 568.875 388.951 568.875 426.667C568.875 464.383 553.892 500.554 527.223 527.223C500.554 553.892 464.383 568.875 426.667 568.875ZM426.667 207.573C397.895 207.573 369.405 213.24 342.823 224.251C316.242 235.261 292.089 251.4 271.744 271.744C251.4 292.089 235.261 316.242 224.251 342.823C213.24 369.405 207.573 397.895 207.573 426.667C207.573 455.438 213.24 483.928 224.251 510.51C235.261 537.092 251.4 561.244 271.744 581.589C292.089 601.934 316.242 618.072 342.823 629.083C369.405 640.093 397.895 645.76 426.667 645.76C484.774 645.76 540.501 622.677 581.589 581.589C622.677 540.501 645.76 484.774 645.76 426.667C645.76 368.559 622.677 312.832 581.589 271.744C540.501 230.656 484.774 207.573 426.667 207.573ZM705.621 198.912C705.621 212.491 700.227 225.514 690.625 235.116C681.023 244.718 668 250.112 654.421 250.112C640.842 250.112 627.819 244.718 618.217 235.116C608.616 225.514 603.221 212.491 603.221 198.912C603.221 185.333 608.616 172.31 618.217 162.708C627.819 153.106 640.842 147.712 654.421 147.712C668 147.712 681.023 153.106 690.625 162.708C700.227 172.31 705.621 185.333 705.621 198.912Z" fill="white"/>
</svg>
